 http://leetleech.org/images/40732626979662390825.jpg

Screens:
 
http://leetleech.org/images/61945006939952378975.jpg
 
http://leetleech.org/images/27107891302873414195.jpg
 
http://leetleech.org/images/96217674655561118649.jpg
 
http://leetleech.org/images/13742688490761392918.jpg

Alternative:
 
http://www.postimg.com/image/31000/photo-30385.jpg
 
http://www.postimg.com/image/31000/photo-30382.jpg
 
http://www.postimg.com/image/31000/photo-30383.jpg
 
http://www.postimg.com/image/31000/photo-30384.jpg

ScreenCaps:
 
http://www.postimg.com/image/31000/photo-30391.jpg

Season of the Witch (2011) DVDRip XviD-MAX

Format                           : AVI
Format/Info                      : Audio Video Interleave
Format profile                   : OpenDML
File size                        : 1.20 GiB
Duration                         : 1h 34mn
Overall bit rate                 : 1 824 Kbps
Writing application              : VirtualDubMod 1.5.10.2 (build 2542/release)
Writing library                  : VirtualDubMod build 2542/release
Original source form             : MAX TORRENTZ
Copyright                        : SIGISMUNT

Video
ID                               : 0
Format                           : MPEG-4 Visual
Format profile                   : AdvancedSimple@L5
Format settings, BVOP            : Yes
Format settings, QPel            : No
Format settings, GMC             : No warppoints
Format settings, Matrix          : Custom
Codec ID                         : XVID
Codec ID/Hint                    : XviD
Duration                         : 1h 34mn
Bit rate                         : 1 629 Kbps
Width                            : 720 pixels
Height                           : 400 pixels
Display aspect ratio             : 16:9
Frame rate                       : 23.976 fps
Original frame rate              : 25.000 fps
Resolution                       : 24 bits
Colorimetry                      : 4:2:0
Scan type                        : Progressive
Bits/(Pixel*Frame)               : 0.236
Stream size                      : 1.08 GiB (89%)
Writing library                  : XviD 58

Audio
ID                               : 1
Format                           : MPEG Audio
Format version                   : Version 1
Format profile                   : Layer 3
Codec ID                         : 55
Codec ID/Hint                    : MP3
Duration                         : 1h 34mn
Bit rate mode                    : Constant
Bit rate                         : 192 Kbps
Channel(s)                       : 2 channels
Sampling rate                    : 48.0 KHz
Resolution                       : 16 bits
Stream size                      : 130 MiB (11%)
Alignment                        : Aligned on interleaves
Interleave, duration             : 489 ms (11.73 video frames)
Interleave, preload duration     : 216 ms
 
Source: Original DVD (no crop or hardcoded subs,perfect a/v/sync quality,sample included)

Note:If you have something to offer as early releases,seedboxes,
links,accounts,etc please contact us on torentz 3xforum ro
 
http://www.imdb.com/title/tt0479997/

Season of the Witch (2011) DVDRip XviD-MAX Torrent Free Download
 
http://thepiratebay.org/user/extremezone/0/7

How To Get Your Maxspeed (uTorrent)

Torrent Client - Preferences - Bandwidth - Number of connections - Set aprox. 500 for each 
Torrent Client - Preferences - BiTorrent - Protocol Encryption - Forced
Bandwidth Allocation - High (Set download/upload limit - Unlimited)
Stop Other Active Torrents - Start downloading and wait for connections.
Enjoy and Seed for at least 1:1 ratio. Don't forget to say thanks/leave reviews.
Before downloading you should check/google search sample "release name""sample".
Greets to all actual/future p2p/scene QUALITY groups and affiliate websites.
Don't trust IMDb robot or bad ratings,always watch some trailers first.
Ignore stupid comments/fake/mislabeled/no-DVDrips/CAM/TS/RAR uploads.
Please spread this release/torrent to your friends/forums/etc.
If you need translation subs visit some subtitles sites.
Report if you see online streaming or other spam links.
Recommended movie player VLC PLAYER.